<mxfile host="65bd71144e">
    <diagram id="egw16g7UAhKpSdio1XMf" name="第 1 页">
        <mxGraphModel dx="1483" dy="2129" grid="1" gridSize="10" guides="1" tooltips="1" connect="1" arrows="1" fold="1" page="1" pageScale="1" pageWidth="827" pageHeight="1169" background="none" math="0" shadow="0">
            <root>
                <mxCell id="0"/>
                <mxCell id="1" parent="0"/>
                <mxCell id="4" style="edgeStyle=none;html=1;entryX=0.5;entryY=0;entryDx=0;entryDy=0;" parent="1" target="5" edge="1">
                    <mxGeometry relative="1" as="geometry">
                        <mxPoint x="325" y="160" as="targetPoint"/>
                        <Array as="points"/>
                        <mxPoint x="410" y="-80" as="sourcePoint"/>
                    </mxGeometry>
                </mxCell>
                <mxCell id="8" style="edgeStyle=none;html=1;exitX=1;exitY=0.5;exitDx=0;exitDy=0;entryX=0;entryY=0.5;entryDx=0;entryDy=0;" parent="1" source="3" target="7" edge="1">
                    <mxGeometry relative="1" as="geometry"/>
                </mxCell>
                <mxCell id="3" value="&lt;span&gt;构建 Connector 对象&lt;/span&gt;&lt;br&gt;&lt;span&gt;（kDisConnected）&lt;/span&gt;&lt;span style=&quot;color: rgb(79 , 193 , 255) ; background-color: rgb(30 , 30 , 30) ; font-family: &amp;#34;yahei consolas hybrid&amp;#34; , &amp;#34;consolas&amp;#34; , &amp;#34;courier new&amp;#34; , monospace ; font-size: 16px&quot;&gt;&lt;br&gt;&lt;/span&gt;" style="ellipse;whiteSpace=wrap;html=1;" parent="1" vertex="1">
                    <mxGeometry x="350" y="-130" width="130" height="90" as="geometry"/>
                </mxCell>
                <mxCell id="25" style="edgeStyle=none;html=1;entryX=0.5;entryY=0;entryDx=0;entryDy=0;exitX=0.727;exitY=0.952;exitDx=0;exitDy=0;exitPerimeter=0;" parent="1" source="5" target="24" edge="1">
                    <mxGeometry relative="1" as="geometry">
                        <mxPoint x="240" y="243" as="sourcePoint"/>
                    </mxGeometry>
                </mxCell>
                <mxCell id="5" value="startInLoop()&lt;br&gt;(kDisConnected)" style="ellipse;whiteSpace=wrap;html=1;" parent="1" vertex="1">
                    <mxGeometry x="350" y="80" width="120" height="80" as="geometry"/>
                </mxCell>
                <mxCell id="6" value="call start in loop thread&lt;br&gt;run startInLoop&amp;nbsp;immediately" style="text;html=1;align=center;verticalAlign=middle;resizable=0;points=[];autosize=1;strokeColor=none;fillColor=none;" parent="1" vertex="1">
                    <mxGeometry x="235" y="-10" width="160" height="30" as="geometry"/>
                </mxCell>
                <mxCell id="21" style="edgeStyle=none;html=1;" parent="1" source="7" target="19" edge="1">
                    <mxGeometry relative="1" as="geometry">
                        <mxPoint x="655" y="-10" as="targetPoint"/>
                    </mxGeometry>
                </mxCell>
                <mxCell id="7" value="&amp;nbsp;push into the PendingFunctors&lt;br&gt;(kDisConnected)" style="ellipse;whiteSpace=wrap;html=1;" parent="1" vertex="1">
                    <mxGeometry x="590" y="-130" width="130" height="90" as="geometry"/>
                </mxCell>
                <mxCell id="9" value="&lt;span style=&quot;color: rgb(240 , 240 , 240) ; font-family: &amp;#34;helvetica&amp;#34; ; font-size: 12px ; font-style: normal ; font-weight: 400 ; letter-spacing: normal ; text-align: center ; text-indent: 0px ; text-transform: none ; word-spacing: 0px ; background-color: rgb(42 , 42 , 42) ; display: inline ; float: none&quot;&gt;calle start in &lt;br&gt;other&amp;nbsp;thread&lt;br&gt;&lt;/span&gt;" style="text;whiteSpace=wrap;html=1;" parent="1" vertex="1">
                    <mxGeometry x="490" y="-130" width="80" height="50" as="geometry"/>
                </mxCell>
                <mxCell id="23" style="edgeStyle=none;html=1;" parent="1" source="19" target="5" edge="1">
                    <mxGeometry relative="1" as="geometry"/>
                </mxCell>
                <mxCell id="19" value="doing PendingFunctors&lt;br&gt;(kDisConnected)" style="ellipse;whiteSpace=wrap;html=1;" parent="1" vertex="1">
                    <mxGeometry x="592.5" y="80" width="125" height="85" as="geometry"/>
                </mxCell>
                <mxCell id="22" value="wakeup the poller" style="text;html=1;align=center;verticalAlign=middle;resizable=0;points=[];autosize=1;strokeColor=none;fillColor=none;" parent="1" vertex="1">
                    <mxGeometry x="660" y="10" width="110" height="20" as="geometry"/>
                </mxCell>
                <mxCell id="29" style="edgeStyle=none;html=1;exitX=0.5;exitY=1;exitDx=0;exitDy=0;" parent="1" source="24" target="27" edge="1">
                    <mxGeometry relative="1" as="geometry"/>
                </mxCell>
                <mxCell id="32" style="edgeStyle=none;html=1;exitX=0;exitY=0.5;exitDx=0;exitDy=0;entryX=1;entryY=0.5;entryDx=0;entryDy=0;" parent="1" source="24" target="31" edge="1">
                    <mxGeometry relative="1" as="geometry"/>
                </mxCell>
                <mxCell id="35" style="edgeStyle=none;html=1;exitX=1;exitY=0.5;exitDx=0;exitDy=0;" parent="1" source="24" target="33" edge="1">
                    <mxGeometry relative="1" as="geometry"/>
                </mxCell>
                <mxCell id="24" value="connect&lt;br&gt;(kDisConnected)" style="ellipse;whiteSpace=wrap;html=1;" parent="1" vertex="1">
                    <mxGeometry x="380" y="347.5" width="120" height="75" as="geometry"/>
                </mxCell>
                <mxCell id="26" value="call connect&lt;br&gt;" style="text;html=1;align=center;verticalAlign=middle;resizable=0;points=[];autosize=1;strokeColor=none;fillColor=none;" parent="1" vertex="1">
                    <mxGeometry x="440" y="230" width="80" height="20" as="geometry"/>
                </mxCell>
                <mxCell id="39" style="edgeStyle=none;html=1;exitX=0.5;exitY=1;exitDx=0;exitDy=0;fontFamily=Helvetica;fontSize=12;fontColor=default;" parent="1" source="27" target="38" edge="1">
                    <mxGeometry relative="1" as="geometry"/>
                </mxCell>
                <mxCell id="27" value="connecting&lt;br&gt;(kConnecting)" style="ellipse;whiteSpace=wrap;html=1;" parent="1" vertex="1">
                    <mxGeometry x="380" y="515" width="120" height="80" as="geometry"/>
                </mxCell>
                <mxCell id="30" value="connect successfully&lt;br&gt;or socket is nonblocking &lt;br&gt;and the connection cannot&lt;br&gt;be completed immediately.&amp;nbsp;" style="text;html=1;align=center;verticalAlign=middle;resizable=0;points=[];autosize=1;strokeColor=none;fillColor=none;" parent="1" vertex="1">
                    <mxGeometry x="190" y="650" width="160" height="60" as="geometry"/>
                </mxCell>
                <mxCell id="40" style="edgeStyle=none;html=1;exitX=1;exitY=0;exitDx=0;exitDy=0;entryX=0;entryY=1;entryDx=0;entryDy=0;" parent="1" source="31" target="5" edge="1">
                    <mxGeometry relative="1" as="geometry"/>
                </mxCell>
                <mxCell id="31" value="retry&lt;br&gt;set state = &lt;br&gt;kDisConnected&amp;nbsp;" style="ellipse;whiteSpace=wrap;html=1;" parent="1" vertex="1">
                    <mxGeometry x="40" y="345" width="120" height="80" as="geometry"/>
                </mxCell>
                <mxCell id="33" value="stop connecting&lt;br&gt;(kDisConnected)" style="ellipse;whiteSpace=wrap;html=1;" parent="1" vertex="1">
                    <mxGeometry x="670" y="345" width="120" height="80" as="geometry"/>
                </mxCell>
                <mxCell id="36" value="no-one listening on the&amp;nbsp;&lt;br&gt;remote address or&amp;nbsp;&lt;br&gt;network is unreachable and so on" style="text;html=1;align=center;verticalAlign=middle;resizable=0;points=[];autosize=1;strokeColor=none;fillColor=none;" parent="1" vertex="1">
                    <mxGeometry x="220" y="305" width="190" height="50" as="geometry"/>
                </mxCell>
                <mxCell id="37" value="unrecoverable or&lt;br&gt;&amp;nbsp;unknown error" style="text;html=1;align=center;verticalAlign=middle;resizable=0;points=[];autosize=1;strokeColor=none;fillColor=none;fontSize=12;fontFamily=Helvetica;fontColor=default;" parent="1" vertex="1">
                    <mxGeometry x="520" y="340" width="110" height="30" as="geometry"/>
                </mxCell>
                <mxCell id="45" style="edgeStyle=none;html=1;exitX=1;exitY=0.5;exitDx=0;exitDy=0;entryX=0;entryY=0.5;entryDx=0;entryDy=0;" parent="1" source="38" target="44" edge="1">
                    <mxGeometry relative="1" as="geometry"/>
                </mxCell>
                <mxCell id="47" style="edgeStyle=none;html=1;exitX=0;exitY=0;exitDx=0;exitDy=0;entryX=1;entryY=1;entryDx=0;entryDy=0;" parent="1" source="38" target="43" edge="1">
                    <mxGeometry relative="1" as="geometry"/>
                </mxCell>
                <mxCell id="49" style="edgeStyle=none;html=1;exitX=0;exitY=0.5;exitDx=0;exitDy=0;entryX=1;entryY=0.5;entryDx=0;entryDy=0;" parent="1" source="38" target="48" edge="1">
                    <mxGeometry relative="1" as="geometry"/>
                </mxCell>
                <mxCell id="38" value="polling&lt;br&gt;(kConnecting)" style="ellipse;whiteSpace=wrap;html=1;fontFamily=Helvetica;fontSize=12;fontColor=default;fillColor=none;gradientColor=none;" parent="1" vertex="1">
                    <mxGeometry x="380" y="720" width="120" height="80" as="geometry"/>
                </mxCell>
                <mxCell id="52" style="edgeStyle=none;html=1;exitX=0.313;exitY=0.033;exitDx=0;exitDy=0;exitPerimeter=0;entryX=0.67;entryY=0.975;entryDx=0;entryDy=0;entryPerimeter=0;" parent="1" source="43" target="31" edge="1">
                    <mxGeometry relative="1" as="geometry">
                        <mxPoint x="130" y="380" as="targetPoint"/>
                    </mxGeometry>
                </mxCell>
                <mxCell id="43" value="handleError&lt;br&gt;(kConnecting)" style="ellipse;whiteSpace=wrap;html=1;" parent="1" vertex="1">
                    <mxGeometry x="190" y="544" width="120" height="80" as="geometry"/>
                </mxCell>
                <mxCell id="44" value="handleWrite&lt;br&gt;set state =&lt;br&gt;kConnected" style="ellipse;whiteSpace=wrap;html=1;" parent="1" vertex="1">
                    <mxGeometry x="670" y="720" width="120" height="80" as="geometry"/>
                </mxCell>
                <mxCell id="46" value="error happened &lt;br&gt;on socket fd" style="text;html=1;align=center;verticalAlign=middle;resizable=0;points=[];autosize=1;strokeColor=none;fillColor=none;" parent="1" vertex="1">
                    <mxGeometry x="20" y="515" width="100" height="30" as="geometry"/>
                </mxCell>
                <mxCell id="53" style="edgeStyle=none;html=1;exitX=0.5;exitY=0;exitDx=0;exitDy=0;" parent="1" source="48" target="31" edge="1">
                    <mxGeometry relative="1" as="geometry"/>
                </mxCell>
                <mxCell id="48" value="handleWrite&lt;br&gt;(kConnecting)" style="ellipse;whiteSpace=wrap;html=1;" parent="1" vertex="1">
                    <mxGeometry x="40" y="720" width="120" height="80" as="geometry"/>
                </mxCell>
                <mxCell id="50" value="self-connection or &lt;br&gt;connnect failed" style="text;html=1;align=center;verticalAlign=middle;resizable=0;points=[];autosize=1;strokeColor=none;fillColor=none;" parent="1" vertex="1">
                    <mxGeometry x="220" y="780" width="110" height="30" as="geometry"/>
                </mxCell>
                <mxCell id="51" value="connect successfully" style="text;html=1;align=center;verticalAlign=middle;resizable=0;points=[];autosize=1;strokeColor=none;fillColor=none;" parent="1" vertex="1">
                    <mxGeometry x="540" y="730" width="130" height="20" as="geometry"/>
                </mxCell>
            </root>
        </mxGraphModel>
    </diagram>
</mxfile>